# Blender 4.1.1
# www.blender.org
mtllib mesh.mtl
o Scene

v 1.000000 2.000000 -1.000000
v 1.000000 0.000000 -1.000000
v 1.000000 2.000000 1.000000
v 1.000000 0.000000 1.000000
v -1.000000 2.000000 -1.000000
v -1.000000 0.000000 -1.000000
v -1.000000 2.000000 1.000000
v -1.000000 0.000000 1.000000
v -2.563050 0.000000 2.563050
v 2.563050 0.000000 2.563050
v -2.563050 0.000000 -2.563050
v 2.563050 0.000000 -2.563050
v -1.000000 0.000000 1.000000
v 1.000000 0.000000 1.000000
v -1.000000 0.000000 -1.000000
v 1.000000 0.000000 -1.000000

vt 0.523438 0.517297
vt 0.750281 0.744141
vt 0.523438 0.744141
vt 0.977125 0.970985
vt 0.750281 0.970984
vt 0.069750 0.744141
vt 0.296594 0.970984
vt 0.069750 0.970984
vt 0.523438 0.970984
vt 0.296594 0.744141
vt 0.750281 0.517297
vt 0.977125 0.744141
vt 0.044005 0.032286
vt 0.360238 0.171012
vt 0.182731 0.171012
vt 0.498964 0.487245
vt 0.182731 0.348519
vt 0.360238 0.348519
vt 0.044005 0.487245
vt 0.498964 0.032286

vn -0.0000 1.0000 -0.0000
vn -0.0000 -0.0000 1.0000
vn -1.0000 -0.0000 -0.0000
vn 1.0000 -0.0000 -0.0000
vn -0.0000 -0.0000 -1.0000
vn -0.0000 1.0000 -0.0000

usemtl Material
s 0

f 5/1/1 3/2/1 1/3/1
f 3/2/2 8/4/2 4/5/2
f 7/6/3 6/7/3 8/8/3
f 1/3/4 4/5/4 2/9/4
f 5/10/5 2/9/5 6/7/5
f 5/1/1 7/11/1 3/2/1
f 3/2/2 7/12/2 8/4/2
f 7/6/3 5/10/3 6/7/3
f 1/3/4 3/2/4 4/5/4
f 5/10/5 1/3/5 2/9/5
f 9/13/6 14/14/6 13/15/6
f 12/16/6 15/17/6 16/18/6
f 15/17/6 11/19/6 9/13/6
f 9/13/6 10/20/6 14/14/6
f 13/15/6 15/17/6 9/13/6
f 14/14/6 10/20/6 12/16/6
f 12/16/6 11/19/6 15/17/6
f 16/18/6 14/14/6 12/16/6

